<?xml version="1.0" standalone="no"?>
<!DOCTYPE svg PUBLIC "-//W3C//DTD SVG 20010904//EN"
 "http://www.w3.org/TR/2001/REC-SVG-20010904/DTD/svg10.dtd">
<svg version="1.0" xmlns="http://www.w3.org/2000/svg"
 width="2162.000000pt" height="2162.000000pt" viewBox="0 0 2162.000000 2162.000000"
 preserveAspectRatio="xMidYMid meet">
<metadata>
Created by potrace 1.11, written by Peter Selinger 2001-2013
</metadata>
<g transform="translate(0.000000,2162.000000) scale(0.100000,-0.100000)"
fill="#000000" stroke="none">
<path d="M10720 21607 c-19 -6 -71 -32 -115 -57 -321 -187 -915 -530 -965
-558 -25 -13 -51 -30 -59 -36 -8 -6 -24 -15 -36 -21 -18 -8 -329 -187 -375
-215 -16 -11 -224 -131 -280 -163 -51 -28 -346 -199 -405 -234 -27 -16 -57
-32 -65 -36 -8 -4 -31 -17 -50 -28 -54 -33 -279 -163 -336 -195 -28 -16 -155
-90 -282 -164 -128 -74 -245 -142 -260 -150 -22 -12 -562 -325 -622 -360 -8
-5 -71 -42 -140 -81 -69 -39 -195 -112 -280 -161 -85 -50 -225 -130 -310 -180
-85 -49 -162 -93 -170 -99 -8 -5 -98 -57 -200 -115 -343 -197 -465 -267 -525
-303 -33 -20 -76 -45 -96 -56 -32 -18 -279 -160 -360 -208 -17 -9 -121 -70
-232 -134 -111 -64 -303 -175 -427 -246 -124 -72 -252 -146 -285 -165 -33 -18
-87 -49 -120 -69 -33 -19 -78 -45 -100 -58 -72 -40 -478 -276 -550 -318 -38
-23 -83 -49 -100 -58 -16 -9 -140 -80 -273 -158 -134 -77 -246 -141 -248 -141
-2 0 -23 -12 -47 -27 -23 -15 -51 -32 -62 -39 -21 -11 -345 -198 -520 -299
-55 -32 -120 -69 -145 -83 -138 -77 -188 -119 -229 -197 l-26 -50 0 -5335 0
-5335 22 -41 c35 -65 72 -103 145 -150 38 -24 70 -44 73 -44 2 0 45 -25 96
-55 50 -30 93 -55 95 -55 3 0 21 -11 42 -24 31 -20 354 -207 475 -275 20 -11
52 -30 71 -40 18 -11 44 -25 57 -33 13 -7 31 -18 39 -24 8 -7 40 -25 70 -41
49 -26 182 -103 850 -491 91 -52 179 -103 195 -112 97 -55 562 -324 570 -330
6 -4 30 -19 55 -32 35 -20 410 -236 725 -418 17 -10 59 -34 95 -55 100 -58
121 -70 178 -104 29 -17 55 -31 57 -31 2 0 32 -17 67 -39 35 -21 214 -125 398
-232 303 -174 714 -412 798 -460 17 -10 47 -27 65 -37 43 -25 138 -81 157 -92
15 -9 552 -319 620 -357 19 -11 134 -78 255 -148 121 -70 239 -138 262 -151
23 -13 92 -53 153 -89 61 -36 115 -65 121 -65 5 0 9 -4 9 -10 0 -5 4 -10 9
-10 5 0 57 -28 116 -63 59 -34 124 -71 144 -83 120 -68 364 -209 406 -235 17
-10 37 -22 45 -26 8 -4 78 -44 155 -89 112 -65 475 -275 630 -364 17 -9 87
-50 155 -90 69 -40 149 -86 178 -103 30 -16 97 -55 150 -86 54 -31 104 -60
112 -64 8 -4 35 -20 60 -35 25 -15 108 -62 183 -106 136 -78 138 -78 215 -81
88 -3 121 7 230 72 41 24 76 43 78 43 3 0 17 8 32 19 25 17 346 203 409 237
15 8 42 24 58 34 17 10 53 31 80 46 28 14 62 35 77 45 14 11 29 19 32 19 3 0
46 25 97 55 50 30 93 55 95 55 2 0 54 30 116 66 62 37 138 81 168 99 30 17
136 78 235 135 99 56 191 110 205 119 14 8 34 21 45 26 11 6 169 97 350 202
182 105 346 200 365 210 19 11 91 53 160 93 68 40 138 81 155 90 62 35 367
211 545 315 102 59 203 117 225 130 22 12 139 80 260 150 121 70 240 139 265
153 25 14 57 32 72 41 15 9 77 45 138 80 72 42 117 76 130 96 27 44 35 108 19
147 -21 52 -289 511 -312 536 -33 36 -71 52 -122 52 -46 0 -90 -24 -670 -360
-95 -55 -368 -213 -475 -275 -122 -70 -1005 -581 -1580 -913 -157 -90 -373
-216 -481 -278 -108 -62 -230 -133 -270 -156 -41 -24 -81 -47 -89 -51 -8 -4
-31 -17 -50 -28 -150 -90 -434 -252 -465 -265 -50 -20 -139 -24 -196 -8 -25 8
-86 37 -135 66 -49 28 -116 67 -149 85 -33 19 -127 73 -210 121 -146 85 -460
267 -520 302 -16 9 -75 43 -130 75 -314 182 -1019 589 -1130 653 -71 41 -210
122 -308 178 -98 57 -180 104 -181 104 -2 0 -45 25 -95 55 -51 30 -94 55 -96
55 -2 0 -45 25 -95 55 -50 30 -94 55 -97 55 -4 0 -14 6 -22 14 -9 7 -41 27
-71 43 -30 17 -95 53 -143 82 -49 28 -93 51 -98 51 -5 0 -9 5 -9 10 0 6 -4 10
-10 10 -5 0 -39 18 -75 40 -36 22 -67 40 -69 40 -3 0 -62 34 -131 75 -70 41
-129 75 -131 75 -2 0 -33 18 -69 40 -36 22 -67 40 -70 40 -3 0 -28 15 -57 33
-29 19 -84 51 -123 72 -38 21 -87 49 -108 62 -21 13 -55 33 -75 45 -20 11
-109 62 -197 113 -407 236 -725 420 -773 446 -28 16 -69 39 -90 52 -20 13 -62
37 -92 54 -30 17 -197 113 -370 213 -173 101 -328 191 -345 200 -39 22 -279
161 -325 189 -19 11 -48 28 -65 37 -16 9 -158 91 -315 182 -405 235 -471 273
-510 295 -19 10 -118 68 -220 126 -102 59 -275 159 -384 222 -110 63 -217 131
-238 152 -22 21 -51 63 -66 95 l-26 57 0 4790 c0 2635 3 4804 6 4821 15 82 79
162 171 216 40 23 92 53 117 68 25 15 65 39 90 53 41 22 325 186 575 332 55
32 115 66 133 77 18 10 144 83 280 161 136 79 267 155 292 169 25 14 272 157
550 318 278 161 523 303 545 315 39 22 259 150 320 185 90 52 617 356 655 378
25 13 57 33 72 43 14 11 28 19 31 19 5 0 318 180 347 200 8 6 21 13 29 17 8 3
80 44 160 91 80 46 162 93 181 104 101 58 821 474 860 497 25 15 52 30 60 34
8 4 30 16 49 28 18 11 99 58 180 105 80 46 153 89 161 94 8 5 65 37 125 71 61
35 121 70 135 79 14 9 50 31 80 47 30 17 109 62 175 100 66 39 226 131 355
206 129 74 251 144 270 155 33 20 115 67 300 174 47 27 92 53 100 58 8 5 53
32 100 59 47 26 247 142 445 256 486 281 462 269 554 269 82 0 136 -19 250
-88 31 -19 73 -43 93 -55 21 -11 124 -71 230 -132 106 -61 207 -119 223 -129
17 -9 102 -59 190 -110 88 -51 279 -161 425 -245 146 -84 321 -185 390 -225
69 -40 141 -82 160 -93 19 -11 152 -87 295 -170 143 -83 271 -157 285 -164 14
-8 39 -22 55 -32 58 -35 280 -164 322 -187 23 -13 108 -62 188 -109 81 -47
151 -85 156 -85 5 0 9 -4 9 -10 0 -5 4 -10 9 -10 8 0 343 -189 367 -207 5 -4
19 -13 30 -19 10 -6 130 -74 265 -152 225 -130 250 -142 297 -143 51 -2 84 12
123 50 13 14 57 87 162 271 10 19 49 86 84 147 77 133 87 178 54 246 -12 24
-32 50 -46 57 -14 7 -25 17 -25 22 0 4 -5 8 -11 8 -6 0 -49 23 -97 51 -48 29
-107 63 -132 77 -25 14 -72 40 -105 60 -33 19 -73 43 -90 52 -16 10 -145 84
-285 165 -140 82 -291 168 -335 193 -44 24 -84 48 -90 52 -5 4 -30 19 -55 32
-25 14 -180 104 -345 200 -165 96 -307 177 -315 181 -8 4 -28 16 -45 27 -16
10 -41 25 -55 32 -47 26 -365 210 -390 226 -14 9 -27 17 -30 17 -3 0 -48 26
-100 57 -164 96 -343 200 -400 231 -30 17 -72 41 -93 54 -22 14 -58 35 -82 48
-24 14 -184 106 -356 206 -173 100 -330 191 -349 202 -19 10 -136 78 -260 150
-317 184 -428 247 -459 259 -37 15 -160 18 -201 5z"/>
<path d="M10953 11249 c-54 -11 -86 -33 -119 -84 -18 -27 -19 -50 -20 -340 -1
-201 3 -321 10 -341 14 -39 45 -77 76 -95 21 -12 629 -15 4166 -19 l4140 -5
41 -27 c22 -14 48 -43 58 -65 18 -36 18 -129 19 -2278 1 -2178 2 -2242 20
-2270 28 -44 66 -73 106 -81 19 -4 168 -7 331 -7 279 1 297 2 336 22 23 11 51
37 64 58 l24 38 1 2679 c1 1767 -2 2689 -8 2708 -12 35 -62 86 -97 100 -28 11
-9094 18 -9148 7z"/>
</g>
</svg>
