<?xml version="1.0" encoding="UTF-8"?>
<svg width="638px" height="733px" viewBox="0 0 638 733" version="1.1" xmlns="http://www.w3.org/2000/svg" xmlns:xlink="http://www.w3.org/1999/xlink">
    <!-- Generator: Sketch 52.6 (67491) - http://www.bohemiancoding.com/sketch -->
    <title>Shape@2x</title>
    <desc>Created with Sketch.</desc>
    <g id="Page-1" stroke="none" stroke-width="1" fill="none" fill-rule="evenodd">
        <g id="logo_20170325" transform="translate(-5764.000000, -2352.000000)" fill="#404041" fill-rule="nonzero">
            <g id="图层_4" transform="translate(4208.000000, 556.000000)">
                <path d="M1879.625,2527.54025 C1876.925,2529.09925 1872.506,2529.09925 1869.806,2527.54025 L1560.91,2349.19825 C1558.21,2347.63925 1556,2343.81225 1556,2340.69425 L1556,1984.01425 C1556,1980.89625 1558.209,1977.06925 1560.91,1975.51025 L1869.806,1797.16925 C1872.506,1795.61025 1876.925,1795.61025 1879.625,1797.16925 L2030.581,1884.32325 C2033.281,1885.88225 2034.215,1889.36725 2032.655,1892.06725 L2023.325,1908.22925 C2021.765,1910.92925 2018.28,1911.86325 2015.58,1910.30425 L1879.625,1831.80925 C1876.925,1830.25025 1872.506,1830.25025 1869.806,1831.80925 L1590.91,1992.83025 C1588.21,1994.38925 1586,1998.21625 1586,2001.33425 L1586,2323.37425 C1586,2326.49225 1588.209,2330.31925 1590.91,2331.87825 L1869.806,2492.89925 C1872.506,2494.45825 1876.925,2494.45825 1879.625,2492.89925 L2014.163,2415.22325 C2016.864,2413.66425 2020.349,2414.59825 2021.908,2417.29825 L2031.238,2433.45925 C2032.798,2436.15925 2031.864,2439.64425 2029.163,2441.20325 L1879.625,2527.54025 Z M2193.43,2332.03425 C2193.43,2335.15225 2190.879,2337.70325 2187.761,2337.70325 L2169.099,2337.70325 C2165.981,2337.70325 2163.43,2335.15225 2163.43,2332.03425 L2163.43,2183.02325 C2163.43,2179.90525 2160.879,2177.35425 2157.761,2177.35425 L1880.385,2177.35425 C1877.267,2177.35425 1874.716,2174.80325 1874.716,2171.68525 L1874.716,2153.02425 C1874.716,2149.90625 1877.267,2147.35525 1880.385,2147.35525 L2187.761,2147.35525 C2190.879,2147.35525 2193.43,2149.90625 2193.43,2153.02425 L2193.43,2332.03425 Z" id="Shape"></path>
            </g>
        </g>
    </g>
</svg>