<?xml version="1.0" encoding="UTF-8"?>
<svg width="384px" height="76px" viewBox="0 0 384 76" version="1.1" xmlns="http://www.w3.org/2000/svg" xmlns:xlink="http://www.w3.org/1999/xlink">
    <!-- Generator: Sketch 52.6 (67491) - http://www.bohemiancoding.com/sketch -->
    <title>CROTEL@2x</title>
    <desc>Created with Sketch.</desc>
    <g id="Symbols" stroke="none" stroke-width="1" fill="none" fill-rule="evenodd">
        <g id="G_logo-Copy" transform="translate(-86.000000, -43.000000)" fill="#000000">
            <path d="M142.332031,67.1953125 L137.700195,67.1953125 L136.853516,56.1884766 C134.927725,53.8974495 132.420914,52.0463938 129.333008,50.6352539 C126.245102,49.224114 122.675802,48.5185547 118.625,48.5185547 C110.523397,48.5185547 104.082055,51.4653026 99.3007812,57.3588867 C94.5195073,63.2524709 92.1289062,70.8642112 92.1289062,80.1943359 L92.1289062,81.2402344 C92.1289062,90.5703592 94.4946052,98.1987008 99.2260742,104.125488 C103.957543,110.052276 110.174766,113.015625 117.87793,113.015625 C121.961934,113.015625 125.672347,112.301765 129.009277,110.874023 C132.346208,109.446282 134.960928,107.603527 136.853516,105.345703 L137.700195,94.3388672 L142.332031,94.3388672 L142.332031,107.088867 C140.074207,110.209977 136.77883,112.816396 132.445801,114.908203 C128.112771,117.00001 123.256863,118.045898 117.87793,118.045898 C108.581008,118.045898 100.977569,114.601109 95.0673828,107.711426 C89.157197,100.821743 86.2021484,91.9981007 86.2021484,81.2402344 L86.2021484,80.2939453 C86.2021484,69.5028757 89.1488963,60.6626321 95.0424805,53.7729492 C100.936065,46.8832663 108.647413,43.4384766 118.176758,43.4384766 C123.555691,43.4384766 128.361795,44.4926652 132.595215,46.6010742 C136.828634,48.7094832 140.074207,51.3242031 142.332031,54.4453125 L142.332031,67.1953125 Z M181.926758,44.5341797 C189.696328,44.5341797 195.66453,46.2275221 199.831543,49.6142578 C203.998556,53.0009935 206.082031,57.8984055 206.082031,64.3066406 C206.082031,68.0918158 204.969738,71.4951021 202.745117,74.5166016 C200.520497,77.538101 197.382833,79.7294854 193.332031,81.0908203 C197.814476,82.2197322 201.043447,84.2368019 203.019043,87.1420898 C204.994639,90.0473778 205.982422,93.7079857 205.982422,98.1240234 L205.982422,104.748047 C205.982422,107.3047 206.380855,109.197259 207.177734,110.425781 C207.974613,111.654303 209.186515,112.318359 210.813477,112.417969 L213.253906,112.567383 L213.253906,117 L209.46875,117 C205.949201,117 203.492194,115.804699 202.097656,113.414062 C200.703118,111.023426 200.005859,108.10158 200.005859,104.648438 L200.005859,98.2236328 C200.005859,93.8407984 198.603041,90.3628058 195.797363,87.7895508 C192.991685,85.2162957 189.082056,83.8798833 184.068359,83.7802734 L165.839844,83.7802734 L165.839844,111.969727 L173.958008,112.666992 L173.958008,117 L151.794922,117 L151.794922,112.666992 L159.913086,111.969727 L159.913086,49.6142578 L151.794922,48.9169922 L151.794922,44.5341797 L181.926758,44.5341797 Z M165.839844,78.7001953 L181.229492,78.7001953 C187.770541,78.7001953 192.551743,77.388685 195.573242,74.765625 C198.594742,72.142565 200.105469,68.6396704 200.105469,64.2568359 C200.105469,59.6083752 198.594742,56.0058722 195.573242,53.4492188 C192.551743,50.8925653 188.00296,49.6142578 181.926758,49.6142578 L165.839844,49.6142578 L165.839844,78.7001953 Z M284.275391,81.2402344 C284.275391,92.1309138 281.370146,100.987759 275.55957,107.811035 C269.748994,114.634311 262.195359,118.045898 252.898438,118.045898 C243.734329,118.045898 236.288603,114.626011 230.561035,107.786133 C224.833467,100.946255 221.969727,92.0977105 221.969727,81.2402344 L221.969727,80.2939453 C221.969727,69.4364692 224.825167,60.5796241 230.536133,53.7231445 C236.247099,46.8666649 243.684524,43.4384766 252.848633,43.4384766 C262.145554,43.4384766 269.70749,46.8666649 275.534668,53.7231445 C281.361846,60.5796241 284.275391,69.4364692 284.275391,80.2939453 L284.275391,81.2402344 Z M278.298828,80.1943359 C278.298828,70.7978046 276.007835,63.194365 271.425781,57.3837891 C266.843727,51.5732131 260.651406,48.6679688 252.848633,48.6679688 C245.178673,48.6679688 239.110862,51.5732131 234.64502,57.3837891 C230.179177,63.194365 227.946289,70.7978046 227.946289,80.1943359 L227.946289,81.2402344 C227.946289,90.7031723 230.187478,98.3398147 234.669922,104.150391 C239.152366,109.960967 245.228477,112.866211 252.898438,112.866211 C260.767617,112.866211 266.968239,109.969267 271.500488,104.175293 C276.032738,98.3813187 278.298828,90.7363756 278.298828,81.2402344 L278.298828,80.1943359 Z M349.121094,44.484375 L349.121094,59.7744141 L343.841797,59.7744141 L343.393555,49.5644531 L323.272461,49.5644531 L323.272461,111.969727 L331.390625,112.617188 L331.390625,117 L309.177734,117 L309.177734,112.617188 L317.295898,111.969727 L317.295898,49.5644531 L297.174805,49.5644531 L296.776367,59.7744141 L291.447266,59.7744141 L291.447266,44.484375 L349.121094,44.484375 Z M399.523438,81.8876953 L369.790039,81.8876953 L369.790039,111.969727 L404.055664,111.969727 L404.503906,101.112305 L409.783203,101.112305 L409.783203,117 L355.745117,117 L355.745117,112.617188 L363.863281,111.969727 L363.863281,49.5644531 L355.745117,48.9169922 L355.745117,44.484375 L409.53418,44.484375 L409.53418,60.421875 L404.254883,60.421875 L403.806641,49.5644531 L369.790039,49.5644531 L369.790039,76.8076172 L399.523438,76.8076172 L399.523438,81.8876953 Z M419.793945,117 L419.793945,112.617188 L427.912109,111.969727 L427.912109,49.5644531 L419.793945,48.9169922 L419.793945,44.484375 L442.006836,44.484375 L442.006836,48.9169922 L433.888672,49.5644531 L433.888672,111.969727 L464.020508,111.969727 L464.46875,101.759766 L469.748047,101.759766 L469.748047,117 L419.793945,117 Z" id="CROTEL"></path>
        </g>
    </g>
</svg>